<svg width="81" height="81" viewBox="0 0 81 81" fill="none" xmlns="http://www.w3.org/2000/svg">
<rect x="0.940002" y="0.289917" width="80" height="80" rx="8" fill="#C5CE38"/>
<g clip-path="url(#clip0_11_162)">
<path d="M37.2291 34.0887H44.4068V27.7411L40.7935 21.9794L37.2291 27.7411V34.0887ZM34.2994 28.8153H15.94V65.2899H30.0513V46.4911L34.2994 39.6552V28.8153ZM39.3287 18.8055V15.2899H20.9693V19.6356L17.1119 25.8856H34.9341L39.3287 18.8055ZM50.7545 42.8778L47.9713 47.3212V65.2899H53.5377V47.3212L50.7545 42.8778ZM32.981 48.3466H45.0416V65.2899H32.981V48.3466ZM49.2896 37.0184H37.2291V40.4852L34.1529 45.4169H45.7252L49.2896 39.6552V37.0184Z" fill="white"/>
</g>
<defs>
<clipPath id="clip0_11_162">
<rect width="50" height="50" fill="white" transform="matrix(1 0 0 -1 15.94 65.2899)"/>
</clipPath>
</defs>
</svg>
