<svg width="81" height="81" viewBox="0 0 81 81" fill="none" xmlns="http://www.w3.org/2000/svg">
<rect x="0.969971" y="0.289917" width="80" height="80" rx="8" fill="#C5CE38"/>
<g clip-path="url(#clip0_11_151)">
<path d="M31.0579 23.9813L33.1086 21.9305L39.2122 27.9852C39.3749 28.1805 39.5458 28.3759 39.7249 28.5712C39.9039 28.7665 40.0748 28.9618 40.2375 29.1571C41.2141 27.7248 41.621 26.1298 41.4583 24.3719C41.2955 22.6141 40.5956 21.1167 39.3586 19.8798C37.8938 18.3824 36.2092 17.243 34.3049 16.4618C32.4006 15.6805 30.4068 15.2899 28.3235 15.2899H24.4172V19.1962C24.4172 21.2795 24.8079 23.2733 25.5891 25.1776C26.3704 27.0819 27.5097 28.7665 29.0071 30.2313C30.2441 31.4683 31.7252 32.1682 33.4504 32.3309C35.1757 32.4937 36.7545 32.1193 38.1868 31.2079C38.024 31.0126 37.8531 30.8173 37.6741 30.6219C37.495 30.4266 37.3079 30.2313 37.1125 30.036L31.0579 23.9813ZM54.886 21.9305L56.9368 23.9813L50.8821 30.036C50.6868 30.2313 50.4996 30.4266 50.3206 30.6219C50.1415 30.8173 49.9706 31.0126 49.8079 31.2079C51.2402 32.1193 52.8189 32.4937 54.5442 32.3309C56.2695 32.1682 57.7506 31.4683 58.9875 30.2313C60.4849 28.7665 61.6243 27.0819 62.4055 25.1776C63.1868 23.2733 63.5774 21.2795 63.5774 19.1962V15.2899H59.6711C57.5878 15.2899 55.594 15.6805 53.6897 16.4618C51.7854 17.243 50.1008 18.3824 48.636 19.8798C47.399 21.1167 46.6991 22.6141 46.5364 24.3719C46.3736 26.1298 46.7805 27.7248 47.7571 29.1571C47.9198 28.9618 48.0907 28.7665 48.2698 28.5712C48.4488 28.3759 48.6197 28.1805 48.7825 27.9852L54.886 21.9305ZM48.636 30.2313C48.4732 30.0686 48.3186 29.8977 48.1721 29.7186C48.0256 29.5396 47.8873 29.3524 47.7571 29.1571C46.9433 30.0686 46.2271 31.0451 45.6086 32.0868C44.9902 33.1285 44.453 34.219 43.9973 35.3583C43.5741 34.219 43.0452 33.1285 42.4104 32.0868C41.7756 31.0451 41.0514 30.0686 40.2375 29.1571C40.1073 29.3524 39.969 29.5396 39.8225 29.7186C39.676 29.8977 39.5214 30.0686 39.3586 30.2313C39.1633 30.4266 38.968 30.5975 38.7727 30.744C38.5774 30.8905 38.3821 31.0451 38.1868 31.2079C39.4237 32.7053 40.4003 34.3899 41.1165 36.2616C41.8326 38.1333 42.2721 40.0458 42.4348 41.9989C41.2629 42.1291 40.1399 42.4139 39.0657 42.8534C37.9915 43.2928 36.9986 43.8544 36.0872 44.538C36.5103 44.7658 36.9254 45.0181 37.3323 45.2948C37.7392 45.5715 38.1705 45.8563 38.6262 46.1493L43.9973 46.2469C45.983 46.2469 47.8222 46.7922 49.5149 47.8827C51.2076 48.9732 52.4771 50.4299 53.3235 52.2528V52.3016C53.8443 52.0087 54.3489 51.6913 54.8372 51.3495C55.3254 51.0077 55.7974 50.6578 56.2532 50.2997C55.4068 48.0536 54.0315 46.1818 52.1272 44.6844C50.2229 43.1871 48.0338 42.2919 45.5598 41.9989C45.7226 40.0458 46.162 38.1333 46.8782 36.2616C47.5943 34.3899 48.5709 32.7053 49.8079 31.2079C49.6125 31.0451 49.4172 30.8905 49.2219 30.744C49.0266 30.5975 48.8313 30.4266 48.636 30.2313ZM33.2551 64.0692C34.5898 64.3947 35.9407 64.6796 37.3079 64.9237C38.675 65.1678 40.2864 65.2899 42.1418 65.2899C44.6158 65.2899 46.7968 65.0295 48.6848 64.5087C50.5403 63.9553 52.3388 63.1984 54.0803 62.2382C55.8219 61.2779 57.6204 60.1304 59.4758 58.7958C61.3313 57.4286 63.496 55.9475 65.97 54.3524C65.9049 54.2873 65.8723 54.2466 65.8723 54.2303C65.8723 54.2141 65.6282 53.8316 65.1399 53.0829C64.3912 51.9761 63.3333 51.3739 61.9661 51.2762C60.5989 51.1786 59.3945 51.5529 58.3528 52.3993C57.2786 53.2456 56.1392 54.0269 54.9348 54.743C53.7304 55.4266 52.4853 56.0126 51.1995 56.5009C49.9137 56.9891 48.5872 57.3635 47.22 57.6239C45.8853 57.8843 44.5181 57.9983 43.1184 57.9657C40.8398 57.9657 38.9273 57.7216 37.3811 57.2333C35.8349 56.745 34.9641 56.4683 34.7688 56.4032L35.6477 53.6688C35.9081 53.7339 36.6812 53.9699 37.967 54.3768C39.2528 54.7837 40.9049 55.0035 42.9231 55.036C44.2577 55.1011 45.5761 54.9872 46.8782 54.6942C48.1803 54.4012 49.4335 53.9943 50.6379 53.4735C50.052 52.204 49.165 51.1705 47.9768 50.3729C46.7887 49.5754 45.4622 49.1766 43.9973 49.1766H38.8215C38.496 49.1766 38.1705 49.1278 37.845 49.0302C37.5194 48.9325 37.2265 48.786 36.9661 48.5907C33.776 46.4423 31.3997 45.2704 29.8372 45.0751C28.2747 44.8798 26.0123 45.7587 23.05 47.7118H15.97V62.3602H17.4348C21.5364 62.3602 24.759 62.5474 27.1028 62.9218C29.4465 63.2961 31.4973 63.6786 33.2551 64.0692Z" fill="white"/>
</g>
<defs>
<clipPath id="clip0_11_151">
<rect width="50" height="50" fill="white" transform="matrix(1 0 0 -1 15.97 65.2899)"/>
</clipPath>
</defs>
</svg>
