<svg width="81" height="81" viewBox="0 0 81 81" fill="none" xmlns="http://www.w3.org/2000/svg">
<rect x="0.920044" y="0.289917" width="80" height="80" rx="8" fill="#C5CE38"/>
<g clip-path="url(#clip0_21_435)">
<path d="M30.3732 46.1005C29.8198 46.1005 29.3559 46.2876 28.9816 46.662C28.6072 47.0363 28.42 47.5002 28.42 48.0536C28.42 48.607 28.6072 49.0708 28.9816 49.4452C29.3559 49.8195 29.8198 50.0067 30.3732 50.0067C30.9266 50.0067 31.3904 49.8195 31.7648 49.4452C32.1391 49.0708 32.3263 48.607 32.3263 48.0536C32.3263 47.5002 32.1391 47.0363 31.7648 46.662C31.3904 46.2876 30.9266 46.1005 30.3732 46.1005ZM30.3732 33.6005C28.3875 33.6005 26.5157 33.9748 24.7579 34.7235C23.0001 35.5048 21.4702 36.5464 20.1681 37.8485C18.866 39.1506 17.8243 40.6805 17.0431 42.4384C16.2944 44.1962 15.92 46.0679 15.92 48.0536C15.92 50.0393 16.2944 51.911 17.0431 53.6688C17.8243 55.4266 18.866 56.9566 20.1681 58.2587C21.4702 59.5608 23.0001 60.6024 24.7579 61.3837C26.5157 62.1324 28.3875 62.5067 30.3732 62.5067C32.3588 62.5067 34.2306 62.1324 35.9884 61.3837C37.7462 60.6024 39.2762 59.5608 40.5782 58.2587C41.8803 56.9566 42.922 55.4266 43.7032 53.6688C44.4519 51.911 44.8263 50.0393 44.8263 48.0536C44.8263 46.0679 44.4519 44.1962 43.7032 42.4384C42.922 40.6805 41.8803 39.1506 40.5782 37.8485C39.2762 36.5464 37.7462 35.5048 35.9884 34.7235C34.2306 33.9748 32.3588 33.6005 30.3732 33.6005ZM30.3732 52.9364C29.0385 52.9364 27.8911 52.4563 26.9308 51.496C25.9705 50.5357 25.4904 49.3882 25.4904 48.0536C25.4904 46.719 25.9705 45.5715 26.9308 44.6112C27.8911 43.6509 29.0385 43.1708 30.3732 43.1708C31.7078 43.1708 32.8553 43.6509 33.8156 44.6112C34.7758 45.5715 35.256 46.719 35.256 48.0536C35.256 49.3882 34.7758 50.5357 33.8156 51.496C32.8553 52.4563 31.7078 52.9364 30.3732 52.9364ZM48.4884 32.868L44.8751 21.0028H47.1212C47.5444 21.0028 47.8943 20.8563 48.171 20.5634C48.4477 20.2704 48.5861 19.9286 48.5861 19.538C48.5861 19.1473 48.4477 18.8055 48.171 18.5126C47.8943 18.2196 47.5444 18.0731 47.1212 18.0731H36.0372V31.5985C36.5255 31.7938 36.9975 31.9891 37.4532 32.1844C37.909 32.3798 38.3647 32.6076 38.8204 32.868H48.4884ZM33.1075 30.8661V18.0731H25.1974C24.9044 18.0731 24.6359 18.1626 24.3917 18.3417C24.1476 18.5207 23.9604 18.7404 23.8302 19.0009C23.7976 19.066 23.7732 19.1473 23.757 19.245C23.7407 19.3427 23.7325 19.424 23.7325 19.4891C23.7325 19.5217 23.7325 19.538 23.7325 19.538V31.9891C24.7742 31.566 25.8484 31.2404 26.9552 31.0126C28.062 30.7847 29.2013 30.6708 30.3732 30.6708C30.8289 30.6708 31.2846 30.6871 31.7404 30.7196C32.1961 30.7522 32.6518 30.801 33.1075 30.8661ZM65.92 56.2567C65.92 57.982 65.3097 59.455 64.089 60.6757C62.8683 61.8964 61.3953 62.5067 59.67 62.5067C57.9448 62.5067 56.4799 61.8964 55.2755 60.6757C54.0711 59.455 53.4689 57.982 53.4689 56.2567C53.4689 54.5315 54.0711 53.0666 55.2755 51.8622C56.4799 50.6578 57.9448 50.0555 59.67 50.0555C61.3953 50.0555 62.8683 50.6578 64.089 51.8622C65.3097 53.0666 65.92 54.5315 65.92 56.2567ZM59.963 40.7294H63.088C62.7299 39.6552 62.144 38.7111 61.3302 37.8973C60.5164 37.0835 59.5724 36.4976 58.4982 36.1395V39.2645C58.4982 39.6552 58.6447 39.9969 58.9376 40.2899C59.2306 40.5829 59.5724 40.7294 59.963 40.7294ZM63.4786 47.9559V43.6591H59.963C58.7586 43.6591 57.7251 43.2277 56.8624 42.3651C55.9998 41.5025 55.5685 40.469 55.5685 39.2645V35.8466C55.5685 35.814 55.5685 35.7896 55.5685 35.7733C55.5685 35.757 55.5685 35.7489 55.5685 35.7489H42.629C44.2241 37.3114 45.4773 39.1506 46.3888 41.2665C47.3003 43.3824 47.756 45.6447 47.756 48.0536C47.756 48.9976 47.6827 49.9335 47.5363 50.8612C47.3898 51.7889 47.17 52.676 46.8771 53.5223H50.9298C51.5157 51.6669 52.6062 50.1369 54.2013 48.9325C55.7963 47.7281 57.6193 47.1259 59.67 47.1259C60.3536 47.1259 61.0128 47.191 61.6476 47.3212C62.2823 47.4514 62.8927 47.663 63.4786 47.9559ZM55.7638 30.9637C55.7638 30.8986 55.7882 30.8335 55.837 30.7684C55.8859 30.7033 55.9591 30.6708 56.0568 30.6708H56.7404C57.131 30.6708 57.4728 30.5243 57.7657 30.2313C58.0587 29.9384 58.2052 29.5966 58.2052 29.2059C58.2052 28.8153 58.0587 28.4735 57.7657 28.1805C57.4728 27.8876 57.131 27.7411 56.7404 27.7411H56.0568C55.1779 27.7411 54.421 28.0585 53.7863 28.6932C53.1515 29.328 52.8341 30.0848 52.8341 30.9637V32.868H55.7638V30.9637Z" fill="white"/>
</g>
<defs>
<clipPath id="clip0_21_435">
<rect width="50" height="50" fill="white" transform="matrix(1 0 0 -1 15.92 65.2899)"/>
</clipPath>
</defs>
</svg>
