<svg width="160" height="100" viewBox="0 0 160 100" fill="none" xmlns="http://www.w3.org/2000/svg">
<path d="M9.64985 29.871C9.64985 29.871 10.6099 42.4457 24.1807 45.0053C37.7514 47.5648 43.0422 36.0707 43.0422 36.0707C43.0422 36.0707 42.3016 23.439 28.7309 20.8795C15.1602 18.32 9.64985 29.871 9.64985 29.871Z" fill="white" stroke="#29BE84" stroke-width="3.46377"/>
<path d="M18.5133 12.4109C18.5133 12.4109 12.9435 23.4209 23.2654 32.5955C33.5874 41.7701 44.0363 34.6338 44.0363 34.6338C44.0363 34.6338 49.8978 23.42 39.5759 14.2454C29.2539 5.07077 18.5133 12.4109 18.5133 12.4109Z" fill="#80EDAF" stroke="#29BE84" stroke-width="3.46377"/>
<path d="M44.5911 46.3432C45.8939 35.9217 43.288 29.6688 31.5643 23.1554" stroke="#29BE84" stroke-width="3.46377" stroke-linecap="square"/>
<path d="M44.6452 66.8885C44.6452 62.4832 45.9145 59.0672 48.4532 56.6405C51.0292 54.1765 54.7812 52.9445 59.7092 52.9445C61.1652 52.9445 62.6399 53.0192 64.1332 53.1685C65.6639 53.3178 66.8585 53.5232 67.7172 53.7845C68.1279 53.8965 68.3892 54.0272 68.5012 54.1765C68.6132 54.3258 68.6692 54.5498 68.6692 54.8485V70.1925C68.6692 71.4245 68.9492 72.2272 69.5092 72.6005C70.0692 72.9738 70.9652 73.1605 72.1972 73.1605H73.7092V80.3285H71.1332C69.1919 80.3285 67.6052 80.0858 66.3732 79.6005C65.1412 79.1152 64.2079 78.3125 63.5732 77.1925C62.8265 77.9392 61.8185 78.5178 60.5492 78.9285C59.3172 79.3018 58.0479 79.4885 56.7412 79.4885H56.0132C54.4452 79.4885 52.9705 79.2832 51.5892 78.8725C50.2079 78.4245 48.9945 77.7338 47.9492 76.8005C46.9412 75.8672 46.1385 74.6725 45.5412 73.2165C44.9439 71.7605 44.6452 70.0245 44.6452 68.0085V66.8885ZM51.7012 66.6645C51.7012 68.7925 52.1119 70.3045 52.9332 71.2005C53.7545 72.0965 55.0239 72.5445 56.7412 72.5445H57.5812C58.8505 72.5445 59.8399 72.3392 60.5492 71.9285C61.2585 71.5178 61.6132 70.8832 61.6132 70.0245V59.5525C61.3892 59.5152 60.9599 59.4965 60.3252 59.4965C59.7279 59.4592 59.2612 59.4405 58.9252 59.4405C56.6479 59.4405 54.8745 59.9818 53.6052 61.0645C52.3359 62.1098 51.7012 63.7152 51.7012 65.8805V66.6645ZM48.7892 41.9685C48.7892 41.5952 48.9199 41.2965 49.1812 41.0725C49.4425 40.8112 49.7599 40.6805 50.1332 40.6805H53.9972C54.3705 40.6805 54.6879 40.8112 54.9492 41.0725C55.2479 41.2965 55.3972 41.5952 55.3972 41.9685V46.3365C55.3972 46.6725 55.2479 46.9712 54.9492 47.2325C54.6505 47.4565 54.3332 47.5685 53.9972 47.5685H50.1332C49.7599 47.5685 49.4425 47.4565 49.1812 47.2325C48.9199 46.9712 48.7892 46.6725 48.7892 46.3365V41.9685ZM59.1492 41.9685C59.1492 41.5952 59.2799 41.2965 59.5412 41.0725C59.8399 40.8112 60.1572 40.6805 60.4932 40.6805H64.4132C64.7865 40.6805 65.0852 40.8112 65.3092 41.0725C65.5705 41.2965 65.7012 41.5952 65.7012 41.9685V46.3365C65.7012 46.6725 65.5705 46.9712 65.3092 47.2325C65.0852 47.4565 64.7865 47.5685 64.4132 47.5685H60.4932C60.1572 47.5685 59.8399 47.4565 59.5412 47.2325C59.2799 46.9712 59.1492 46.6725 59.1492 46.3365V41.9685ZM71.4814 73.8325C71.4814 73.6458 71.6868 73.4965 72.0974 73.3845C72.5081 73.2352 72.9188 73.1605 73.3294 73.1605H76.1294C76.4654 73.1605 76.8201 73.1418 77.1934 73.1045C77.5668 73.0672 77.9028 72.9925 78.2014 72.8805C78.5374 72.7312 78.7988 72.5445 78.9854 72.3205C79.2094 72.0592 79.3214 71.7045 79.3214 71.2565V38.8885C79.3214 38.5525 79.4334 38.2725 79.6574 38.0485C79.8814 37.8245 80.1428 37.7125 80.4414 37.7125H85.5374C85.8734 37.7125 86.1348 37.8245 86.3214 38.0485C86.5081 38.2725 86.6014 38.5525 86.6014 38.8885V72.2085C86.9001 72.6192 87.4414 72.8805 88.2254 72.9925C89.0094 73.1045 89.6628 73.1605 90.1854 73.1605H91.5854V80.3285H90.9134C89.4948 80.3285 88.0574 80.2165 86.6014 79.9925C85.1454 79.7312 83.9508 79.2085 83.0174 78.4245C82.4948 78.7978 81.9161 79.1152 81.2814 79.3765C80.6468 79.6005 79.9748 79.7872 79.2654 79.9365C78.5934 80.0858 77.9028 80.1978 77.1934 80.2725C76.5214 80.3098 75.8868 80.3285 75.2894 80.3285H73.3294C72.9188 80.3285 72.5081 80.2725 72.0974 80.1605C71.6868 80.0485 71.4814 79.8805 71.4814 79.6565V73.8325ZM104.54 41.6885C104.54 41.3152 104.671 41.0165 104.932 40.7925C105.194 40.5312 105.511 40.4005 105.884 40.4005H110.308C110.644 40.4005 110.924 40.5312 111.148 40.7925C111.41 41.0165 111.54 41.3152 111.54 41.6885V46.0565C111.54 46.3925 111.41 46.6912 111.148 46.9525C110.924 47.1765 110.626 47.2885 110.252 47.2885H105.884C105.474 47.2885 105.138 47.1765 104.876 46.9525C104.652 46.6912 104.54 46.3925 104.54 46.0565V41.6885ZM89.3642 73.8325C89.3642 73.6458 89.5696 73.4965 89.9802 73.3845C90.3909 73.2352 90.8016 73.1605 91.2122 73.1605H98.9962L94.7962 62.4085C94.6842 62.2218 94.6096 61.9792 94.5722 61.6805C94.5349 61.3445 94.5349 61.0832 94.5722 60.8965L94.6842 58.0405C94.7216 57.7418 94.8336 57.4805 95.0202 57.2565C95.2069 57.0325 95.4682 56.7712 95.8042 56.4725C96.4762 55.9498 97.2976 55.4645 98.2682 55.0165C99.2389 54.5685 100.266 54.1765 101.348 53.8405C102.431 53.5045 103.551 53.2432 104.708 53.0565C105.866 52.8698 106.986 52.7765 108.068 52.7765C109.972 52.7765 111.746 52.9818 113.388 53.3925C115.031 53.7658 116.45 54.4005 117.644 55.2965C118.876 56.1552 119.828 57.3125 120.5 58.7685C121.21 60.1872 121.564 61.9232 121.564 63.9765V65.2085C121.564 65.9552 121.49 66.7205 121.34 67.5045C121.228 68.2885 121.042 69.0538 120.78 69.8005C120.556 70.5098 120.258 71.1632 119.884 71.7605C119.548 72.3578 119.156 72.8245 118.708 73.1605H125.652V80.3285H91.2122C90.8016 80.3285 90.3909 80.2725 89.9802 80.1605C89.5696 80.0485 89.3642 79.8805 89.3642 79.6565V73.8325ZM109.412 73.3285C110.271 73.1792 111.018 72.8618 111.652 72.3765C112.287 71.8912 112.81 71.3125 113.22 70.6405C113.668 69.9312 113.986 69.1472 114.172 68.2885C114.396 67.3925 114.508 66.4778 114.508 65.5445V65.0405C114.508 62.9872 113.948 61.4938 112.828 60.5605C111.708 59.5898 110.122 59.1045 108.068 59.1045C107.21 59.1045 106.183 59.1978 104.988 59.3845C103.831 59.5712 102.711 60.0192 101.628 60.7285L106.612 73.3285H109.412ZM123.435 73.8325C123.435 73.6458 123.64 73.4965 124.051 73.3845C124.461 73.2352 124.872 73.1605 125.283 73.1605H129.091C129.987 73.1605 130.565 73.0858 130.827 72.9365C131.125 72.7498 131.275 72.2085 131.275 71.3125V38.8885C131.275 38.5525 131.387 38.2725 131.611 38.0485C131.835 37.8245 132.096 37.7125 132.395 37.7125H137.491C137.789 37.7125 138.032 37.8245 138.219 38.0485C138.443 38.2725 138.555 38.5525 138.555 38.8885V71.4245C138.555 72.4325 138.536 73.5525 138.499 74.7845C138.461 75.9792 138.387 77.0805 138.275 78.0885C138.2 78.4618 138.069 78.7792 137.883 79.0405C137.733 79.3018 137.435 79.5258 136.987 79.7125C136.576 79.8245 135.997 79.9178 135.251 79.9925C134.541 80.0672 133.757 80.1418 132.899 80.2165C132.04 80.2538 131.144 80.2912 130.211 80.3285C129.315 80.3285 128.493 80.3285 127.747 80.3285H125.283C124.872 80.3285 124.461 80.2725 124.051 80.1605C123.64 80.0485 123.435 79.8805 123.435 79.6565V73.8325ZM147.162 38.8325C147.162 38.5338 147.256 38.2725 147.442 38.0485C147.666 37.8245 147.946 37.7125 148.282 37.7125H153.322C153.658 37.7125 153.92 37.8245 154.106 38.0485C154.33 38.2725 154.442 38.5338 154.442 38.8325V79.1525C154.442 79.4512 154.33 79.7312 154.106 79.9925C153.92 80.2165 153.658 80.3285 153.322 80.3285H148.282C147.946 80.3285 147.666 80.2165 147.442 79.9925C147.256 79.7312 147.162 79.4512 147.162 79.1525V38.8325Z" fill="#29BE84"/>
</svg>
